HIERARCHY
ROOT mug2
{
	OFFSET 0.000000 0.000000 0.000000
	CHANNELS 6 Xposition Yposition Zposition Yrotation Xrotation Zrotation
	End Site
	{
		OFFSET 0.000000 0.000000 0.000000
	}
}
MOTION
Frames: 156
Frame Time: 0.008333334
4.036638 5.014074 2.552890 5.089777 4.285323 -1.508911 
4.030293 5.023916 2.549546 5.668219 4.229432 -1.911072 
4.024014 5.033402 2.547745 6.516457 4.112229 -2.250854 
4.015136 5.043201 2.544655 7.372301 3.989752 -2.752350 
4.004990 5.052936 2.542892 8.443447 3.852445 -3.252777 
3.992337 5.062933 2.541890 9.457444 3.602436 -3.833252 
3.978104 5.072837 2.540511 10.644690 3.424295 -4.335449 
3.961326 5.082581 2.539492 11.804890 3.283254 -4.812408 
3.943400 5.093983 2.539951 13.137100 3.021122 -5.195496 
3.922501 5.106379 2.541681 14.518410 2.985977 -5.581696 
3.901013 5.119672 2.545149 16.041730 3.043133 -5.925781 
3.877028 5.134225 2.550778 17.614160 3.337186 -6.075287 
3.852761 5.150926 2.558916 19.288420 3.399969 -6.149078 
3.827968 5.168453 2.567736 20.943930 3.445909 -6.159760 
3.800773 5.186029 2.577712 22.367630 3.635028 -5.866882 
3.773498 5.205121 2.588310 23.829050 3.671774 -5.587341 
3.746233 5.224880 2.600597 25.186300 3.762357 -5.357208 
3.717895 5.243957 2.614325 26.464080 3.994208 -4.831909 
3.689969 5.264208 2.629320 27.853620 4.128407 -4.339294 
3.662891 5.284570 2.645219 29.262020 4.284448 -3.958618 
3.635608 5.304375 2.661747 30.538770 4.450690 -3.493195 
3.609958 5.324548 2.678661 31.910150 4.675333 -3.219696 
3.584527 5.344470 2.696004 33.147750 4.695350 -3.101471 
3.559909 5.364142 2.713397 34.263520 4.945561 -3.075989 
3.536333 5.383770 2.729801 35.311600 5.124347 -3.133545 
3.514073 5.403275 2.747196 36.396160 5.213672 -3.501984 
3.492446 5.422797 2.764455 37.452970 5.372674 -3.694702 
3.470881 5.441868 2.781739 38.437100 5.548985 -4.194427 
3.449766 5.461517 2.800004 39.560730 5.784682 -4.516907 
3.428872 5.480248 2.818752 40.601040 5.855961 -4.848145 
3.406977 5.498873 2.838267 41.608720 6.149414 -5.031219 
3.386069 5.517282 2.858431 42.661230 6.288788 -5.178802 
3.364408 5.535922 2.879554 43.668430 6.560494 -5.192535 
3.342979 5.554043 2.900424 44.636660 6.788964 -5.167358 
3.322136 5.571771 2.922237 45.603090 7.039991 -5.118256 
3.301474 5.589710 2.943484 46.483020 7.320025 -5.158447 
3.281870 5.606884 2.965364 47.482700 7.452760 -5.167297 
3.263480 5.623116 2.987129 48.536060 7.724404 -5.141205 
3.244979 5.639418 3.008756 49.459280 7.999264 -5.215149 
3.228040 5.655361 3.030546 50.491960 8.256059 -5.341034 
3.210999 5.671548 3.051383 51.392160 8.599306 -5.411713 
3.195359 5.686738 3.072610 52.336910 8.775695 -5.537720 
3.180037 5.701661 3.092491 53.233480 9.037619 -5.717957 
3.165640 5.715801 3.111340 54.058750 9.330137 -5.878662 
3.152338 5.729658 3.129752 54.863110 9.575493 -6.083160 
3.139608 5.743069 3.146917 55.582510 9.936357 -6.270691 
3.128031 5.756339 3.163347 56.303260 10.101680 -6.434998 
3.116339 5.768988 3.178794 56.946740 10.349980 -6.561676 
3.105278 5.781241 3.193594 57.493140 10.643500 -6.728058 
3.095141 5.794178 3.207048 58.132910 10.847160 -6.819305 
3.085035 5.806862 3.220230 58.691650 11.085020 -6.844421 
3.076679 5.819005 3.232680 59.265710 11.352000 -6.714508 
3.068198 5.831772 3.243618 59.728360 11.559400 -6.561676 
3.060603 5.843923 3.254290 60.057680 11.828830 -6.378937 
3.053403 5.855852 3.264115 60.290760 12.116370 -6.040955 
3.046793 5.867580 3.273052 60.430310 12.332100 -5.839325 
3.040004 5.878664 3.281287 60.552380 12.569780 -5.568512 
3.034050 5.889322 3.288481 60.669040 12.782680 -5.350952 
3.028329 5.899290 3.295892 60.889820 12.967620 -5.154175 
3.023467 5.908373 3.302995 61.171710 13.072310 -5.053741 
3.018744 5.917202 3.309314 61.456540 13.172210 -4.956329 
3.014581 5.925662 3.314960 61.841880 13.188070 -4.810822 
3.011586 5.933622 3.319809 62.116710 13.331160 -4.597015 
3.009199 5.940912 3.323791 62.434350 13.369810 -4.663544 
3.007158 5.948100 3.327239 62.558170 13.390750 -4.766388 
3.006029 5.955033 3.328881 62.714940 13.421440 -4.798096 
3.004797 5.961774 3.329810 62.799840 13.589710 -4.965393 
3.004629 5.968423 3.330732 62.940560 13.608460 -5.005646 
3.004142 5.974579 3.331067 62.994300 13.798330 -5.251770 
3.004932 5.981034 3.331504 63.247260 13.852730 -5.207642 
3.006115 5.987280 3.331843 63.429730 13.859270 -5.224945 
3.007635 5.993089 3.330938 63.609310 14.020200 -5.228668 
3.008945 5.998484 3.327783 63.747450 14.108240 -5.196350 
3.011513 6.004020 3.325034 63.640930 14.105550 -5.083130 
3.013736 6.008840 3.319727 63.467780 14.119260 -5.121918 
3.016443 6.012942 3.313536 63.094720 14.171860 -5.334839 
3.019095 6.016830 3.306464 62.671320 14.274850 -5.297516 
3.022327 6.020508 3.298249 62.254760 14.242890 -5.504150 
3.025637 6.024548 3.290372 61.856120 14.310740 -5.555786 
3.029234 6.027153 3.282561 61.499130 14.443800 -5.442963 
3.033185 6.029988 3.275246 61.104180 14.486240 -5.466431 
3.036498 6.032513 3.267961 60.646120 14.629600 -5.382202 
3.040081 6.034537 3.260425 60.217430 14.657680 -5.174347 
3.043222 6.035395 3.254418 59.663230 14.763560 -5.218750 
3.046720 6.035760 3.248417 59.123600 14.828910 -5.130280 
3.049282 6.036395 3.242548 58.551160 15.043530 -5.094879 
3.052356 6.035981 3.238061 58.099490 15.103260 -5.082275 
3.054790 6.034511 3.233616 57.590200 15.182210 -5.157501 
3.056517 6.032299 3.230603 57.330020 15.258390 -5.178833 
3.056916 6.030010 3.228017 57.029590 15.242030 -5.143555 
3.057341 6.026448 3.226630 56.912810 15.195850 -5.082153 
3.056437 6.022823 3.225478 56.833910 15.177140 -5.006714 
3.055648 6.017007 3.226473 56.757550 15.154550 -5.022858 
3.053832 6.011970 3.226393 56.781650 15.063340 -5.018433 
3.051422 6.006110 3.226733 56.761180 15.003270 -5.105194 
3.049342 5.998637 3.227809 56.708550 14.985310 -5.169739 
3.045962 5.991376 3.228625 56.656750 14.886810 -5.191772 
3.042580 5.983848 3.229485 56.532730 14.770280 -5.438141 
3.038594 5.976111 3.230829 56.502670 14.734290 -5.522430 
3.034921 5.967823 3.232926 56.568660 14.666470 -5.570526 
3.030781 5.959736 3.234323 56.539770 14.617760 -5.669067 
3.026495 5.950992 3.234940 56.557000 14.682280 -5.728729 
3.021971 5.941936 3.235171 56.445950 14.616880 -5.911652 
3.017452 5.931655 3.236113 56.307460 14.572530 -6.053711 
3.013202 5.920886 3.236167 56.123310 14.491850 -6.291779 
3.007389 5.909159 3.236204 55.915620 14.316710 -6.447998 
3.001521 5.897175 3.236631 55.756970 14.171890 -6.688477 
2.995037 5.883736 3.236902 55.644450 13.886560 -6.660461 
2.987710 5.869767 3.238621 55.633160 13.624890 -6.731689 
2.980088 5.855456 3.241247 55.748270 13.234740 -6.588959 
2.971517 5.841269 3.245399 55.851920 12.966280 -6.373993 
2.962941 5.826658 3.250297 56.096850 12.632860 -6.140900 
2.954332 5.812539 3.255742 56.408760 12.302000 -5.797485 
2.945643 5.798506 3.261630 56.788130 11.984830 -5.509735 
2.937376 5.785349 3.268062 57.161610 11.685410 -5.182648 
2.929531 5.771650 3.275500 57.480800 11.371440 -5.046021 
2.921745 5.758580 3.283350 57.793530 11.078260 -4.870575 
2.914481 5.746455 3.291957 58.202140 10.762230 -4.687286 
2.907496 5.735510 3.300811 58.674930 10.410590 -4.703430 
2.900585 5.725146 3.310477 59.140550 10.153280 -4.643341 
2.894179 5.715291 3.321239 59.686210 9.804039 -4.673309 
2.887508 5.706083 3.332259 60.220260 9.438409 -4.762146 
2.880566 5.698548 3.344102 60.828790 9.043482 -4.980377 
2.873562 5.690788 3.356804 61.511970 8.575774 -4.972656 
2.865882 5.684466 3.370531 62.214190 8.060431 -4.952240 
2.857663 5.678548 3.385211 62.927860 7.658836 -5.147339 
2.850436 5.673243 3.400349 63.746620 7.080920 -5.064453 
2.842650 5.668852 3.415838 64.455960 6.573761 -5.215363 
2.835078 5.665379 3.430450 65.214690 6.049592 -5.205139 
2.827639 5.662734 3.445063 65.941330 5.527216 -5.306488 
2.821266 5.660090 3.459433 66.699420 4.986468 -5.290466 
2.814505 5.658110 3.472987 67.331140 4.454525 -5.454590 
2.808343 5.655803 3.486519 68.001340 3.922541 -5.360840 
2.801752 5.654360 3.498934 68.634620 3.348598 -5.429565 
2.795889 5.653154 3.510711 69.070050 2.812327 -5.577698 
2.790576 5.651745 3.520808 69.560380 2.321505 -5.762207 
2.785634 5.650803 3.529778 69.893830 1.644281 -6.114288 
2.781007 5.648992 3.536822 70.242790 1.171189 -6.462891 
2.776590 5.646914 3.543151 70.534350 0.522283 -6.809937 
2.774191 5.645455 3.549106 70.864140 -0.371765 -7.241852 
2.770713 5.643626 3.553257 71.010570 -0.899567 -7.638580 
2.768810 5.641001 3.558134 71.303490 -1.618195 -7.868622 
2.766798 5.638557 3.561390 71.500480 -2.242767 -8.056976 
2.764903 5.636635 3.564173 71.621000 -2.867035 -8.440063 
2.764787 5.632606 3.566337 71.745550 -3.558685 -8.626862 
2.764801 5.628732 3.567602 71.855120 -4.308289 -8.881805 
2.765166 5.624779 3.568103 71.901320 -4.964478 -9.142548 
2.766695 5.620438 3.567534 71.984590 -5.609467 -9.434326 
2.768800 5.615634 3.567212 71.947970 -6.236755 -9.699005 
2.770298 5.611204 3.564662 71.900430 -6.817078 -9.853699 
2.773535 5.604741 3.564104 71.856990 -7.524200 -9.966278 
2.776086 5.598927 3.561838 71.716930 -8.131500 -10.104800 
2.779306 5.592148 3.559705 71.555580 -8.787506 -10.124630 
2.783505 5.584793 3.557208 71.487890 -9.660004 -10.208440 
2.786798 5.576410 3.554170 71.229590 -10.221980 -10.379460 
2.790784 5.566060 3.551942 71.047310 -10.913640 -10.406430 
